<svg version="1.1" xmlns="http://www.w3.org/2000/svg" xmlns:xlink="http://www.w3.org/1999/xlink" viewBox="0 0 226 226"><g fill="none" fill-rule="nonzero" stroke="none" stroke-width="1" stroke-linecap="butt" stroke-linejoin="miter" stroke-miterlimit="10" stroke-dasharray="" stroke-dashoffset="0" font-family="none" font-weight="none" font-size="none" text-anchor="none" style="mix-blend-mode: normal"><path d="M0,226v-226h226v226z" fill="none"></path><path d="M33.9,226c-18.72245,0 -33.9,-15.17755 -33.9,-33.9v-158.2c0,-18.72245 15.17755,-33.9 33.9,-33.9h158.2c18.72245,0 33.9,15.17755 33.9,33.9v158.2c0,18.72245 -15.17755,33.9 -33.9,33.9z" fill="#ff7e71"></path><g fill="#000000"><path d="M49.84337,176.15663v0c-10.71993,-10.71993 -11.66913,-27.79047 -2.1922,-39.63287l13.4922,-16.86713l45.2,45.2l-16.86713,13.4922c-11.8424,9.47693 -28.91293,8.52773 -39.63287,-2.1922z"></path><rect x="-5.493" y="16.97018" transform="rotate(-45.001) scale(7.53333,7.53333)" width="8.485" height="8.485" opacity="0.35"></rect><path d="M151.54337,119.65663l-45.2,-45.2l59.01613,-23.60193c6.1472,-2.4634 12.2492,3.64613 9.79333,9.79333z"></path><path d="M144.01003,66.9233v-8.82907c0,-8.82153 3.503,-17.27393 9.7406,-23.51153v0c4.746,-4.746 12.8594,-1.38613 12.8594,5.32607v11.94787z" opacity="0.35"></path><path d="M174.14337,59.38997h11.94787c6.7122,0 10.07207,8.1134 5.32607,12.8594v0c-6.2376,6.2376 -14.69753,9.7406 -23.51153,9.7406h-8.82907z" opacity="0.35"></path></g></g></svg>