<svg version="1.1" xmlns="http://www.w3.org/2000/svg" xmlns:xlink="http://www.w3.org/1999/xlink" viewBox="0 0 226 226"><g fill="none" fill-rule="nonzero" stroke="none" stroke-width="1" stroke-linecap="butt" stroke-linejoin="miter" stroke-miterlimit="10" stroke-dasharray="" stroke-dashoffset="0" font-family="none" font-weight="none" font-size="none" text-anchor="none" style="mix-blend-mode: normal"><path d="M0,226v-226h226v226z" fill="none"></path><path d="M113,226c-62.40818,0 -113,-50.59182 -113,-113v0c0,-62.40818 50.59182,-113 113,-113v0c62.40818,0 113,50.59182 113,113v0c0,62.40818 -50.59182,113 -113,113z" fill="#6dc3ff"></path><g fill="#000000"><path d="M171.08849,137.48491l16.83686,16.83686c4.06043,4.06043 4.06043,10.65204 0,14.71248l-16.83686,16.83686c-4.64803,4.64049 -12.59563,1.34846 -12.59563,-5.22056v-37.95261c0,-6.56901 7.9476,-9.86105 12.59563,-5.21302z"></path><rect x="8.03905" y="19.96136" transform="scale(7.53327,7.53327)" width="15" height="3"></rect><path d="M88.51633,54.91274l-16.82932,-16.82932c-4.06043,-4.06043 -10.65204,-4.06043 -14.71248,0l-16.83686,16.82932c-4.64803,4.64803 -1.35599,12.59563 5.21302,12.59563h7.6764v90.39923h22.59981v-90.39923h7.6764c6.56901,0 9.86105,-7.9476 5.21302,-12.59563z" opacity="0.35"></path><circle cx="8.53905" cy="21.46136" transform="scale(7.53327,7.53327)" r="2.5"></circle></g></g></svg>