<svg version="1.1" xmlns="http://www.w3.org/2000/svg" xmlns:xlink="http://www.w3.org/1999/xlink" viewBox="0 0 226 226"><g fill="none" fill-rule="nonzero" stroke="none" stroke-width="1" stroke-linecap="butt" stroke-linejoin="miter" stroke-miterlimit="10" stroke-dasharray="" stroke-dashoffset="0" font-family="none" font-weight="none" font-size="none" text-anchor="none" style="mix-blend-mode: normal"><path d="M0,226v-226h226v226z" fill="none"></path><path d="M33.9,226c-18.72245,0 -33.9,-15.17755 -33.9,-33.9v-158.2c0,-18.72245 15.17755,-33.9 33.9,-33.9h158.2c18.72245,0 33.9,15.17755 33.9,33.9v158.2c0,18.72245 -15.17755,33.9 -33.9,33.9z" fill="#f1c40f"></path><g fill="#000000"><path d="M66.58817,105.59685l-6.3732,15.92547c-5.68767,14.2154 -15.17213,26.6002 -27.42887,35.79087v0c-6.3958,4.79873 -7.9326,13.75587 -3.49547,20.4078l8.39967,12.60327c6.2828,9.4242 20.34,8.80647 25.764,-1.14507l33.2672,-60.98233z" opacity="0.35"></path><path d="M186.7825,106.62138c-1.50667,-6.04927 -7.65387,-9.75567 -13.70313,-8.21887c-14.916,3.73653 -26.23107,-0.5876 -32.57413,-4.294c-0.03767,-2.3956 -0.68553,-4.76107 -1.8532,-6.92313l17.23627,-17.23627c1.95113,-1.95113 2.47847,-4.6782 1.84567,-7.17173l19.64693,-19.64693c2.94553,-2.94553 2.94553,-7.7066 0,-10.65213c-2.94553,-2.94553 -7.7066,-2.94553 -10.65213,0l-17.27393,17.2664l-9.7406,-9.7406c-2.94553,-2.94553 -7.7066,-2.94553 -10.65213,0c-2.94553,2.94553 -2.94553,7.7066 0,10.65213l7.0738,7.0738l-13.25113,13.25113c-5.82327,-3.71393 -13.64287,-3.051 -18.7354,2.04153l-13.83873,13.83873c-4.43713,-3.58587 -10.87813,-3.4804 -15.0064,0.64787l-15.06667,15.06667c-4.41453,4.407 -4.41453,11.5712 0,15.9782c0.28627,0.28627 0.67047,0.39927 0.97933,0.64787c-1.14507,4.9042 0.15067,10.2604 3.97007,14.0798l10.65213,10.65213c4.77613,4.77613 11.92527,5.6048 17.6054,2.63667l11.3904,34.16367c1.57447,4.73847 5.989,7.7292 10.71993,7.7292c1.18273,0 2.38807,-0.18833 3.57833,-0.5876c5.9212,-1.97373 9.11533,-8.36953 7.1416,-14.29073l-6.77247,-20.3174c0.46707,-0.2938 0.9718,-0.51227 1.3786,-0.91907l11.48833,-11.48833c4.26387,-4.2714 6.6218,-9.944 6.6218,-15.98573c0,-2.4634 -0.48967,-4.8364 -1.243,-7.11147c6.5314,2.62913 14.5544,4.6782 23.94847,4.6782c5.22813,0 10.86307,-0.62527 16.86713,-2.13193c6.0568,-1.49913 9.73307,-7.63127 8.21887,-13.68807zM121.7171,130.21578l-7.42787,7.42787l-2.712,-8.136l10.04193,-10.04193l0.09793,0.09793c1.4238,1.41627 2.20727,3.30713 2.20727,5.32607c0,2.01893 -0.77593,3.90227 -2.20727,5.32607z"></path></g></g></svg>