<svg version="1.1" xmlns="http://www.w3.org/2000/svg" xmlns:xlink="http://www.w3.org/1999/xlink" viewBox="0 0 226 226"><g fill="none" fill-rule="nonzero" stroke="none" stroke-width="1" stroke-linecap="butt" stroke-linejoin="miter" stroke-miterlimit="10" stroke-dasharray="" stroke-dashoffset="0" font-family="none" font-weight="none" font-size="none" text-anchor="none" style="mix-blend-mode: normal"><path d="M0,226v-226h226v226z" fill="none"></path><path d="M33.9,226c-18.72245,0 -33.9,-15.17755 -33.9,-33.9v-158.2c0,-18.72245 15.17755,-33.9 33.9,-33.9h158.2c18.72245,0 33.9,15.17755 33.9,33.9v158.2c0,18.72245 -15.17755,33.9 -33.9,33.9z" fill="#7aee7b"></path><g fill="#000000"><path d="M170.95556,97.20335l-85.43859,-56.95906c-3.17072,-2.11698 -6.84458,-3.18971 -10.52793,-3.18971c-3.07579,0 -6.15158,0.74047 -8.96156,2.24988c-6.17057,3.30363 -10.0248,9.73051 -10.0248,16.73647v113.91813c0,7.00596 3.85423,13.43285 10.0248,16.73647c2.80998,1.50942 5.88577,2.24988 8.96156,2.24988c3.68335,0 7.35721,-1.07273 10.53743,-3.18971l85.43859,-56.95906c5.27821,-3.52197 8.44893,-9.44571 8.44893,-15.79665c0,-6.35094 -3.17072,-12.27468 -8.45842,-15.79665z"></path></g></g></svg>